<?xml version="1.0" encoding="iso-8859-1"?>
<!-- Uploaded to: SVG Repo, www.svgrepo.com, Generator: SVG Repo Mixer Tools -->
<svg fill="#000000" height="800px" width="800px" version="1.1" id="Layer_1" xmlns="http://www.w3.org/2000/svg" xmlns:xlink="http://www.w3.org/1999/xlink" 
	 viewBox="0 0 461.501 461.501" xml:space="preserve">
<g>
	<g>
		<g>
			<path d="M428.636,42.25H32.865C14.743,42.25,0,56.993,0,75.115v311.271c0,18.122,14.743,32.865,32.865,32.865h395.771
				c18.122,0,32.865-14.743,32.865-32.865V75.115C461.5,56.993,446.757,42.25,428.636,42.25z M431.501,386.385L431.501,386.385
				c-0.001,1.58-1.286,2.865-2.866,2.865H32.865c-1.58,0-2.865-1.285-2.865-2.865V75.115c0-1.58,1.285-2.865,2.865-2.865h395.771
				c1.58,0,2.865,1.285,2.865,2.865V386.385z"/>
			<path d="M323.663,218.469l-108.375-76c-4.581-3.213-10.57-3.609-15.534-1.026c-4.964,2.582-8.079,7.712-8.079,13.308v152
				c0,5.595,3.114,10.726,8.079,13.308c4.991,2.596,10.977,2.169,15.534-1.026l108.375-76c4.004-2.808,6.388-7.391,6.388-12.281
				C330.051,225.862,327.667,221.277,323.663,218.469z M221.675,277.91v-94.32l67.25,47.16L221.675,277.91z"/>
			<path d="M150.45,139.75c-8.284,0-15,6.716-15,15v152c0,8.284,6.716,15,15,15s15-6.716,15-15v-152
				C165.45,146.466,158.734,139.75,150.45,139.75z"/>
		</g>
	</g>
</g>
</svg>